<svg id="Capa_1" enable-background="new 0 0 512 512" height="512" viewBox="0 0 512 512" width="512" xmlns="http://www.w3.org/2000/svg"><g><path d="m256 284.242c37.793 0 68.539-30.765 68.539-68.579s-30.746-68.579-68.539-68.579-68.539 30.765-68.539 68.579 30.746 68.579 68.539 68.579zm0-117.158c26.765 0 48.539 21.793 48.539 48.579s-21.774 48.579-48.539 48.579-48.539-21.793-48.539-48.579 21.774-48.579 48.539-48.579z"/><path d="m416.563 327.45-60.111-47.233 4.508-27.585c4.917-27.835 5.159-65.991.587-92.818-5.379-31.555-16.738-61.308-33.762-88.431-17.252-27.485-39.469-50.891-66.034-69.564-3.451-2.426-8.051-2.426-11.502 0-26.565 18.674-48.782 42.079-66.034 69.564-17.023 27.123-28.383 56.876-33.762 88.432-4.572 26.826-4.33 64.982.587 92.817l4.508 27.585-60.111 47.233c-3.406 2.677-4.701 7.241-3.209 11.309l41.813 113.945c1.346 3.667 4.703 6.215 8.597 6.523.266.021.53.031.794.031 3.599 0 6.947-1.941 8.725-5.118l36.031-64.414h135.625l36.031 64.414c1.777 3.177 5.126 5.118 8.725 5.118.264 0 .528-.011.794-.031 3.894-.309 7.251-2.856 8.597-6.523l41.813-113.945c1.492-4.068.197-8.632-3.21-11.309zm-160.563-305.085c23.363 17.59 42.97 39.707 57.775 64.689h-115.55c14.805-24.982 34.412-47.098 57.775-64.689zm-85.832 140.811c3.32-19.476 9.268-38.352 17.52-56.121h136.624c8.252 17.769 14.2 36.645 17.52 56.12 4.231 24.831 3.994 60.211-.577 86.037-.008.044-.016.087-.022.131l-19.672 120.384h-17.331v-27.244c0-5.522-4.478-10-10-10h-76.459c-5.522 0-10 4.478-10 10v27.244h-17.331l-19.672-120.384c-.007-.044-.015-.087-.022-.131-4.572-25.826-4.809-61.206-.578-86.036zm-24.846 262.215-31.816-86.702 45.725-35.928 12.364 75.662zm82.449-55.664v-17.244h56.459v17.244zm138.907 55.664-26.272-46.969 12.364-75.662 45.725 35.929z"/><path d="m256 403.725c-24.442 0-44.328 19.896-44.328 44.353 0 21.949 30.982 54.606 37.193 60.93 1.881 1.915 4.451 2.993 7.135 2.993s5.254-1.078 7.135-2.993c6.211-6.323 37.193-38.98 37.193-60.93 0-24.457-19.886-44.353-44.328-44.353zm-.004 83.556c-11.583-13.185-24.324-30.841-24.324-39.204 0-13.428 10.913-24.353 24.328-24.353s24.328 10.925 24.328 24.353c0 8.343-12.746 26.008-24.332 39.204z"/></g></svg>